<?xml version="1.0" encoding="UTF-8"?>
<svg width="64px" height="58px" viewBox="0 0 64 58" version="1.1" xmlns="http://www.w3.org/2000/svg" xmlns:xlink="http://www.w3.org/1999/xlink">
    <!-- Generator: Sketch 43.2 (39069) - http://www.bohemiancoding.com/sketch -->
    <title>Field</title>
    <desc>Created with Sketch.</desc>
    <defs></defs>
    <g id="Page-1" stroke="none" stroke-width="1" fill="none" fill-rule="evenodd">
        <g id="Artboard" transform="translate(-125.000000, -210.000000)">
            <g id="Field" transform="translate(125.000000, 212.000000)">
                <circle id="Oval-12" stroke="#B4DFFB" stroke-width="3" stroke-linecap="round" cx="30" cy="27" r="27"></circle>
                <circle id="Oval-12" stroke="#FF78C7" stroke-width="3" stroke-linecap="round" cx="30" cy="27" r="22"></circle>
                <circle id="Oval-12" stroke="#5EA7FF" stroke-width="3" stroke-linecap="round" cx="30" cy="27" r="17"></circle>
                <path d="M29,36 C49.336554,36 58,56 58,56 L0,56 C0,56 8.66344604,36 29,36 Z" id="Rectangle-18" fill="#80D25B"></path>
                <rect id="Rectangle-19" fill="#BD7575" x="32" y="32" width="18" height="12"></rect>
                <polygon id="Triangle-8" fill="#E43535" points="41 24 53 33 29 33"></polygon>
                <rect id="Rectangle-9" fill="#595959" x="38" y="35" width="6" height="9"></rect>
                <path d="M42,41 C57.4277306,41 64,56 64,56 L20,56 C20,56 26.5722694,41 42,41 Z" id="Rectangle-18" fill="#22BA8E"></path>
            </g>
        </g>
    </g>
</svg>