<?xml version="1.0" encoding="UTF-8"?>
<svg width="56px" height="59px" viewBox="0 0 56 59" version="1.1" xmlns="http://www.w3.org/2000/svg" xmlns:xlink="http://www.w3.org/1999/xlink">
    <!-- Generator: Sketch 43.2 (39069) - http://www.bohemiancoding.com/sketch -->
    <title>Relax</title>
    <desc>Created with Sketch.</desc>
    <defs></defs>
    <g id="Page-1" stroke="none" stroke-width="1" fill="none" fill-rule="evenodd">
        <g id="Artboard" transform="translate(-221.000000, -209.000000)">
            <g id="Relax" transform="translate(222.000000, 210.000000)">
                <path d="M0,57 L53.0864666,57" id="Line" stroke="#22BA8E" stroke-width="2" stroke-linecap="square"></path>
                <polygon id="Rectangle-34" fill="#BD7575" points="5 47 27 47 29 51 3 51"></polygon>
                <rect id="Rectangle-35" fill="#9C4D4D" x="5" y="44" width="22" height="2"></rect>
                <rect id="Rectangle-35" fill="#9C4D4D" x="5" y="41" width="22" height="2"></rect>
                <path d="M6,52 L6,55" id="Line" stroke="#9C4D4D" stroke-width="2" stroke-linecap="square"></path>
                <path d="M26,52 L26,55" id="Line" stroke="#9C4D4D" stroke-width="2" stroke-linecap="square"></path>
                <circle id="Oval-11" fill="#ED9111" cx="30" cy="17" r="12"></circle>
                <path d="M30,2 L30,0 M40.6066017,6.39339828 L42.0208153,4.97918472 M45,17 L47,17 M40.6066017,27.6066017 L42.0208153,29.0208153 M30,32 L30,34 M19.3933983,27.6066017 L17.9791847,29.0208153 M15,17 L13,17 M19.3933983,6.39339828 L17.9791847,4.97918472" id="Line" stroke="#ED9111" stroke-width="2" stroke-linecap="round" stroke-linejoin="round"></path>
                <rect id="Rectangle-2" fill="#5EA7FF" x="6" y="7" width="19" height="7" rx="3.5"></rect>
                <rect id="Rectangle-2" fill="#5EA7FF" x="35" y="17" width="19" height="7" rx="3.5"></rect>
                <rect id="Rectangle-2" fill="#5EA7FF" x="27" y="13" width="19" height="7" rx="3.5"></rect>
            </g>
        </g>
    </g>
</svg>