<?xml version="1.0" encoding="UTF-8"?>
<svg width="63px" height="64px" viewBox="0 0 63 64" version="1.1" xmlns="http://www.w3.org/2000/svg" xmlns:xlink="http://www.w3.org/1999/xlink">
    <!-- Generator: Sketch 43.2 (39069) - http://www.bohemiancoding.com/sketch -->
    <title>Tower</title>
    <desc>Created with Sketch.</desc>
    <defs></defs>
    <g id="Page-1" stroke="none" stroke-width="1" fill="none" fill-rule="evenodd">
        <g id="Artboard" transform="translate(-212.000000, -22.000000)">
            <g id="Tower" transform="translate(213.000000, 23.000000)">
                <rect id="Rectangle-5" fill="#5B68C0" x="7" y="20" width="18" height="42"></rect>
                <rect id="Rectangle-9" fill="#0A3586" x="13" y="53" width="6" height="9"></rect>
                <path d="M12,54 L20,54" id="Line" stroke="#0A3586" stroke-width="2" stroke-linecap="square"></path>
                <path d="M12,29.9999433 C12,27.7908356 13.7953562,26 16,26 L16,26 C18.209139,26 20,27.7996535 20,29.9999433 L20,35 L12,35 L12,29.9999433 Z" id="Rectangle-7" fill="#0A3586"></path>
                <rect id="Rectangle-8" fill="#0A3586" x="7" y="41" width="18" height="5"></rect>
                <polygon id="Triangle-4" fill="#0A3586" points="16 8 27 20 5 20"></polygon>
                <path d="M16,10 L16,0" id="Line" stroke="#5B68C0" stroke-width="2" stroke-linecap="square"></path>
                <rect id="Rectangle-6" fill="#5EA7FF" x="15" y="1" width="11" height="6"></rect>
                <path d="M37,9.16304002 C38.5036328,7.81788139 40.4888962,7 42.6651861,7 C47.3596064,7 51.1651861,10.8055796 51.1651861,15.5 C51.1651861,19.6245192 48.2275126,23.062908 44.3303721,23.83696 C46.070188,22.2805106 47.1651861,20.0181305 47.1651861,17.5 C47.1651861,12.8055796 43.3596064,9 38.6651861,9 C38.0952849,9 37.5384833,9.05608619 37,9.16304002 Z" id="Combined-Shape" fill="#325AA6"></path>
                <path d="M45,59 L45,61" id="Line" stroke="#0A3586" stroke-width="2" stroke-linecap="square"></path>
                <polygon id="Triangle-5" fill="#0A3586" points="45 38 52 59 38 59"></polygon>
                <path d="M0,62 L60.0333241,62" id="Line" stroke="#0A3586" stroke-width="2" stroke-linecap="square"></path>
                <path d="M36,24 L36,28" id="Line" stroke="#5EA7FF" stroke-width="2" stroke-linecap="round" stroke-linejoin="round"></path>
                <path d="M34,26 L38,26" id="Line" stroke="#5EA7FF" stroke-width="2" stroke-linecap="round" stroke-linejoin="round"></path>
                <path d="M55,30 L55,34" id="Line" stroke="#5EA7FF" stroke-width="2" stroke-linecap="round" stroke-linejoin="round"></path>
                <path d="M53,32 L57,32" id="Line" stroke="#5EA7FF" stroke-width="2" stroke-linecap="round" stroke-linejoin="round"></path>
            </g>
        </g>
    </g>
</svg>